<mxfile host="app.diagrams.net" modified="2023-04-04T08:16:26.142Z" agent="Mozilla/5.0 (Macintosh; Intel Mac OS X 10_15_7) AppleWebKit/537.36 (KHTML, like Gecko) Chrome/111.0.0.0 Safari/537.36" etag="zN3ZefLR-o2XuRnuQYMu" version="21.1.4" type="github">
  <diagram name="第 1 页" id="gfby3PmrfD_U8mLN3vST">
    <mxGraphModel dx="3566" dy="869" grid="1" gridSize="10" guides="1" tooltips="1" connect="1" arrows="1" fold="1" page="1" pageScale="1" pageWidth="1654" pageHeight="1169" math="0" shadow="0">
      <root>
        <mxCell id="0" />
        <mxCell id="1" parent="0" />
        <mxCell id="IynW-cATV-pzJD-m26w4-99" value="" style="rounded=1;whiteSpace=wrap;html=1;fillColor=#cce5ff;strokeColor=#36393d;" parent="1" vertex="1">
          <mxGeometry x="-70" y="50" width="720" height="430" as="geometry" />
        </mxCell>
        <mxCell id="IynW-cATV-pzJD-m26w4-97" value="" style="rounded=1;whiteSpace=wrap;html=1;fillColor=#d5e8d4;strokeColor=#82b366;" parent="1" vertex="1">
          <mxGeometry x="-690" y="280" width="525" height="170" as="geometry" />
        </mxCell>
        <mxCell id="IynW-cATV-pzJD-m26w4-93" value="" style="rounded=1;whiteSpace=wrap;html=1;fillColor=#fff2cc;strokeColor=#d6b656;" parent="1" vertex="1">
          <mxGeometry x="-590" y="670" width="1260" height="380" as="geometry" />
        </mxCell>
        <mxCell id="IynW-cATV-pzJD-m26w4-91" value="" style="rounded=1;whiteSpace=wrap;html=1;fillColor=#dae8fc;strokeColor=#6c8ebf;" parent="1" vertex="1">
          <mxGeometry x="-260" y="540" width="920" height="70" as="geometry" />
        </mxCell>
        <mxCell id="IynW-cATV-pzJD-m26w4-64" style="edgeStyle=orthogonalEdgeStyle;rounded=0;orthogonalLoop=1;jettySize=auto;html=1;exitX=1;exitY=0.5;exitDx=0;exitDy=0;entryX=0.5;entryY=1;entryDx=0;entryDy=0;" parent="1" source="2hHQCEHZhG925bIhgHVo-1" target="IynW-cATV-pzJD-m26w4-73" edge="1">
          <mxGeometry relative="1" as="geometry">
            <mxPoint x="830" y="620" as="targetPoint" />
            <Array as="points">
              <mxPoint x="410" y="905" />
              <mxPoint x="560" y="905" />
            </Array>
          </mxGeometry>
        </mxCell>
        <mxCell id="8BzjSbciPG6FjHRtyO9h-1" value="&lt;font style=&quot;font-size: 22px;&quot;&gt;上报转换结果&lt;/font&gt;" style="edgeLabel;html=1;align=center;verticalAlign=middle;resizable=0;points=[];labelBackgroundColor=none;" parent="IynW-cATV-pzJD-m26w4-64" vertex="1" connectable="0">
          <mxGeometry x="0.3066" y="-1" relative="1" as="geometry">
            <mxPoint x="-1" y="-59" as="offset" />
          </mxGeometry>
        </mxCell>
        <mxCell id="2hHQCEHZhG925bIhgHVo-1" value="Converter" style="rounded=1;whiteSpace=wrap;html=1;fontSize=22;fillColor=#f8cecc;gradientColor=#ea6b66;strokeColor=#b85450;" parent="1" vertex="1">
          <mxGeometry x="210" y="855" width="200" height="90" as="geometry" />
        </mxCell>
        <mxCell id="8BzjSbciPG6FjHRtyO9h-3" style="edgeStyle=orthogonalEdgeStyle;rounded=0;orthogonalLoop=1;jettySize=auto;html=1;exitX=0;exitY=0.5;exitDx=0;exitDy=0;dashed=1;dashPattern=12 12;" parent="1" source="2hHQCEHZhG925bIhgHVo-2" target="2hHQCEHZhG925bIhgHVo-4" edge="1">
          <mxGeometry relative="1" as="geometry" />
        </mxCell>
        <mxCell id="8BzjSbciPG6FjHRtyO9h-4" value="&lt;font style=&quot;font-size: 22px;&quot;&gt;投递转换任务&lt;/font&gt;" style="edgeLabel;html=1;align=center;verticalAlign=middle;resizable=0;points=[];labelBackgroundColor=none;" parent="8BzjSbciPG6FjHRtyO9h-3" vertex="1" connectable="0">
          <mxGeometry x="-0.1608" y="-1" relative="1" as="geometry">
            <mxPoint x="-40" y="-19" as="offset" />
          </mxGeometry>
        </mxCell>
        <mxCell id="2hHQCEHZhG925bIhgHVo-2" value="Converter-Scheduler" style="rounded=1;whiteSpace=wrap;html=1;fontSize=22;fillColor=#e6d0de;gradientColor=#d5739d;strokeColor=#996185;" parent="1" vertex="1">
          <mxGeometry x="320" y="340" width="210" height="90" as="geometry" />
        </mxCell>
        <mxCell id="IynW-cATV-pzJD-m26w4-22" style="edgeStyle=orthogonalEdgeStyle;rounded=0;orthogonalLoop=1;jettySize=auto;html=1;entryX=0.5;entryY=0;entryDx=0;entryDy=0;dashed=1;exitX=0.5;exitY=1;exitDx=0;exitDy=0;" parent="1" source="2hHQCEHZhG925bIhgHVo-4" target="IynW-cATV-pzJD-m26w4-71" edge="1">
          <mxGeometry relative="1" as="geometry">
            <mxPoint x="380" y="500" as="targetPoint" />
            <Array as="points">
              <mxPoint x="-365" y="440" />
              <mxPoint x="270" y="440" />
              <mxPoint x="270" y="520" />
              <mxPoint x="370" y="520" />
            </Array>
          </mxGeometry>
        </mxCell>
        <mxCell id="2hHQCEHZhG925bIhgHVo-4" value="&lt;font style=&quot;font-size: 22px;&quot;&gt;redis stream&lt;/font&gt;" style="rounded=1;whiteSpace=wrap;html=1;fillColor=#f8cecc;gradientColor=#ea6b66;strokeColor=#b85450;" parent="1" vertex="1">
          <mxGeometry x="-420" y="355" width="120" height="60" as="geometry" />
        </mxCell>
        <mxCell id="2hHQCEHZhG925bIhgHVo-6" value="自建对象存储&lt;br&gt;服务&lt;span style=&quot;white-space: pre; font-size: 22px;&quot;&gt; &lt;/span&gt;" style="rounded=1;whiteSpace=wrap;html=1;fontSize=22;fillColor=#f8cecc;gradientColor=#ea6b66;strokeColor=#b85450;" parent="1" vertex="1">
          <mxGeometry x="-530" y="760" width="180" height="90" as="geometry" />
        </mxCell>
        <mxCell id="IynW-cATV-pzJD-m26w4-52" style="edgeStyle=orthogonalEdgeStyle;rounded=0;orthogonalLoop=1;jettySize=auto;html=1;exitX=0.5;exitY=1;exitDx=0;exitDy=0;entryX=0;entryY=0.5;entryDx=0;entryDy=0;" parent="1" source="2hHQCEHZhG925bIhgHVo-8" target="2hHQCEHZhG925bIhgHVo-6" edge="1">
          <mxGeometry relative="1" as="geometry" />
        </mxCell>
        <mxCell id="IynW-cATV-pzJD-m26w4-53" value="&lt;font style=&quot;font-size: 22px;&quot;&gt;本地存储可达，&lt;br&gt;访问本地存储&lt;/font&gt;" style="edgeLabel;html=1;align=center;verticalAlign=middle;resizable=0;points=[];labelBackgroundColor=none;" parent="IynW-cATV-pzJD-m26w4-52" vertex="1" connectable="0">
          <mxGeometry x="-0.5179" y="-1" relative="1" as="geometry">
            <mxPoint x="26" y="-6" as="offset" />
          </mxGeometry>
        </mxCell>
        <mxCell id="8BzjSbciPG6FjHRtyO9h-2" value="&lt;font style=&quot;font-size: 22px;&quot;&gt;HTTP协议&lt;/font&gt;" style="edgeLabel;html=1;align=center;verticalAlign=middle;resizable=0;points=[];labelBackgroundColor=none;" parent="IynW-cATV-pzJD-m26w4-52" vertex="1" connectable="0">
          <mxGeometry x="0.7227" y="2" relative="1" as="geometry">
            <mxPoint x="-59" y="-13" as="offset" />
          </mxGeometry>
        </mxCell>
        <mxCell id="IynW-cATV-pzJD-m26w4-83" style="edgeStyle=orthogonalEdgeStyle;rounded=0;orthogonalLoop=1;jettySize=auto;html=1;exitX=0.5;exitY=0;exitDx=0;exitDy=0;entryX=0.003;entryY=0.444;entryDx=0;entryDy=0;entryPerimeter=0;" parent="1" source="2hHQCEHZhG925bIhgHVo-8" target="2hHQCEHZhG925bIhgHVo-9" edge="1">
          <mxGeometry relative="1" as="geometry" />
        </mxCell>
        <mxCell id="IynW-cATV-pzJD-m26w4-84" value="&lt;font style=&quot;font-size: 22px;&quot;&gt;本地存储不可达，&lt;br style=&quot;border-color: var(--border-color);&quot;&gt;访问COS&lt;/font&gt;" style="edgeLabel;html=1;align=center;verticalAlign=middle;resizable=0;points=[];labelBackgroundColor=none;" parent="IynW-cATV-pzJD-m26w4-83" vertex="1" connectable="0">
          <mxGeometry x="-0.7088" y="2" relative="1" as="geometry">
            <mxPoint as="offset" />
          </mxGeometry>
        </mxCell>
        <mxCell id="8BzjSbciPG6FjHRtyO9h-8" style="edgeStyle=orthogonalEdgeStyle;rounded=0;orthogonalLoop=1;jettySize=auto;html=1;exitX=0.25;exitY=1;exitDx=0;exitDy=0;entryX=0;entryY=0.5;entryDx=0;entryDy=0;fillColor=#60a917;strokeColor=#2D7600;" parent="1" source="2hHQCEHZhG925bIhgHVo-8" target="8BzjSbciPG6FjHRtyO9h-6" edge="1">
          <mxGeometry relative="1" as="geometry">
            <Array as="points">
              <mxPoint x="-860" y="630" />
              <mxPoint x="-860" y="985" />
            </Array>
          </mxGeometry>
        </mxCell>
        <mxCell id="8BzjSbciPG6FjHRtyO9h-10" value="&lt;font style=&quot;font-size: 22px;&quot;&gt;HTTP协议&lt;/font&gt;" style="edgeLabel;html=1;align=center;verticalAlign=middle;resizable=0;points=[];" parent="8BzjSbciPG6FjHRtyO9h-8" vertex="1" connectable="0">
          <mxGeometry x="0.4616" y="3" relative="1" as="geometry">
            <mxPoint x="38" y="-12" as="offset" />
          </mxGeometry>
        </mxCell>
        <mxCell id="2hHQCEHZhG925bIhgHVo-8" value="&lt;font style=&quot;font-size: 22px;&quot;&gt;Client&lt;/font&gt;" style="rounded=1;whiteSpace=wrap;html=1;fillColor=#b0e3e6;strokeColor=#0e8088;" parent="1" vertex="1">
          <mxGeometry x="-900" y="540" width="210" height="90" as="geometry" />
        </mxCell>
        <mxCell id="2hHQCEHZhG925bIhgHVo-9" value="&lt;font style=&quot;font-size: 22px;&quot;&gt;COS&lt;/font&gt;" style="rounded=1;whiteSpace=wrap;html=1;fillColor=#f8cecc;gradientColor=#ea6b66;strokeColor=#b85450;" parent="1" vertex="1">
          <mxGeometry x="-655" y="330" width="210" height="90" as="geometry" />
        </mxCell>
        <mxCell id="IynW-cATV-pzJD-m26w4-38" style="edgeStyle=orthogonalEdgeStyle;rounded=0;orthogonalLoop=1;jettySize=auto;html=1;exitX=0.5;exitY=0;exitDx=0;exitDy=0;entryX=0.467;entryY=0.994;entryDx=0;entryDy=0;entryPerimeter=0;" parent="1" source="IynW-cATV-pzJD-m26w4-43" target="2hHQCEHZhG925bIhgHVo-9" edge="1">
          <mxGeometry relative="1" as="geometry">
            <Array as="points">
              <mxPoint x="-150" y="520" />
              <mxPoint x="-557" y="520" />
            </Array>
          </mxGeometry>
        </mxCell>
        <mxCell id="IynW-cATV-pzJD-m26w4-39" value="&lt;font style=&quot;font-size: 22px;&quot;&gt;增量文件&lt;br&gt;同步&lt;/font&gt;" style="edgeLabel;html=1;align=center;verticalAlign=middle;resizable=0;points=[];labelBackgroundColor=none;" parent="IynW-cATV-pzJD-m26w4-38" vertex="1" connectable="0">
          <mxGeometry x="0.5476" y="3" relative="1" as="geometry">
            <mxPoint x="356" y="-33" as="offset" />
          </mxGeometry>
        </mxCell>
        <mxCell id="IynW-cATV-pzJD-m26w4-45" style="edgeStyle=orthogonalEdgeStyle;rounded=0;orthogonalLoop=1;jettySize=auto;html=1;exitX=0.5;exitY=0;exitDx=0;exitDy=0;entryX=0.5;entryY=1;entryDx=0;entryDy=0;" parent="1" source="2hHQCEHZhG925bIhgHVo-10" target="IynW-cATV-pzJD-m26w4-43" edge="1">
          <mxGeometry relative="1" as="geometry" />
        </mxCell>
        <mxCell id="IynW-cATV-pzJD-m26w4-88" value="&lt;font style=&quot;font-size: 22px;&quot;&gt;增量文件同步&lt;/font&gt;" style="edgeLabel;html=1;align=center;verticalAlign=middle;resizable=0;points=[];labelBackgroundColor=none;" parent="IynW-cATV-pzJD-m26w4-45" vertex="1" connectable="0">
          <mxGeometry x="-0.45" y="2" relative="1" as="geometry">
            <mxPoint as="offset" />
          </mxGeometry>
        </mxCell>
        <mxCell id="IynW-cATV-pzJD-m26w4-94" style="edgeStyle=orthogonalEdgeStyle;rounded=0;orthogonalLoop=1;jettySize=auto;html=1;exitX=0;exitY=0.5;exitDx=0;exitDy=0;entryX=1;entryY=0.5;entryDx=0;entryDy=0;dashed=1;" parent="1" source="2hHQCEHZhG925bIhgHVo-10" target="2hHQCEHZhG925bIhgHVo-6" edge="1">
          <mxGeometry relative="1" as="geometry" />
        </mxCell>
        <mxCell id="IynW-cATV-pzJD-m26w4-95" value="&lt;font style=&quot;font-size: 22px;&quot;&gt;存储&lt;br&gt;检测&lt;/font&gt;" style="edgeLabel;html=1;align=center;verticalAlign=middle;resizable=0;points=[];labelBackgroundColor=none;" parent="IynW-cATV-pzJD-m26w4-94" vertex="1" connectable="0">
          <mxGeometry x="0.2387" y="-1" relative="1" as="geometry">
            <mxPoint as="offset" />
          </mxGeometry>
        </mxCell>
        <mxCell id="2hHQCEHZhG925bIhgHVo-10" value="S3 Sync" style="rounded=1;whiteSpace=wrap;html=1;fontSize=22;fillColor=#f8cecc;gradientColor=#ea6b66;strokeColor=#b85450;" parent="1" vertex="1">
          <mxGeometry x="-255" y="855" width="210" height="90" as="geometry" />
        </mxCell>
        <mxCell id="IynW-cATV-pzJD-m26w4-6" value="" style="edgeStyle=orthogonalEdgeStyle;rounded=0;orthogonalLoop=1;jettySize=auto;html=1;startArrow=block;startFill=1;entryX=0.5;entryY=0;entryDx=0;entryDy=0;" parent="1" source="IynW-cATV-pzJD-m26w4-1" target="IynW-cATV-pzJD-m26w4-70" edge="1">
          <mxGeometry relative="1" as="geometry">
            <mxPoint x="120" y="430" as="targetPoint" />
          </mxGeometry>
        </mxCell>
        <mxCell id="IynW-cATV-pzJD-m26w4-1" value="Cloud Core" style="rounded=1;whiteSpace=wrap;html=1;fontSize=22;fillColor=#e6d0de;gradientColor=#d5739d;strokeColor=#996185;" parent="1" vertex="1">
          <mxGeometry x="40" y="160" width="210" height="90" as="geometry" />
        </mxCell>
        <mxCell id="IynW-cATV-pzJD-m26w4-4" style="edgeStyle=orthogonalEdgeStyle;rounded=0;orthogonalLoop=1;jettySize=auto;html=1;exitX=0.5;exitY=0;exitDx=0;exitDy=0;entryX=0.5;entryY=1;entryDx=0;entryDy=0;strokeColor=default;startArrow=block;startFill=1;" parent="1" source="IynW-cATV-pzJD-m26w4-2" target="IynW-cATV-pzJD-m26w4-70" edge="1">
          <mxGeometry relative="1" as="geometry">
            <mxPoint x="110" y="595" as="targetPoint" />
          </mxGeometry>
        </mxCell>
        <mxCell id="IynW-cATV-pzJD-m26w4-87" value="&lt;font style=&quot;font-size: 22px;&quot;&gt;Websocket&lt;/font&gt;" style="edgeLabel;html=1;align=center;verticalAlign=middle;resizable=0;points=[];labelBackgroundColor=none;" parent="IynW-cATV-pzJD-m26w4-4" vertex="1" connectable="0">
          <mxGeometry x="0.0718" relative="1" as="geometry">
            <mxPoint x="-5" y="40" as="offset" />
          </mxGeometry>
        </mxCell>
        <mxCell id="IynW-cATV-pzJD-m26w4-27" style="edgeStyle=orthogonalEdgeStyle;rounded=0;orthogonalLoop=1;jettySize=auto;html=1;exitX=0.5;exitY=1;exitDx=0;exitDy=0;startArrow=none;entryX=0.5;entryY=1;entryDx=0;entryDy=0;" parent="1" source="IynW-cATV-pzJD-m26w4-2" target="2hHQCEHZhG925bIhgHVo-10" edge="1">
          <mxGeometry relative="1" as="geometry">
            <mxPoint x="110" y="945" as="sourcePoint" />
            <mxPoint x="-200" y="915" as="targetPoint" />
            <Array as="points">
              <mxPoint x="145" y="985" />
              <mxPoint x="-150" y="985" />
            </Array>
          </mxGeometry>
        </mxCell>
        <mxCell id="IynW-cATV-pzJD-m26w4-60" style="edgeStyle=orthogonalEdgeStyle;rounded=0;orthogonalLoop=1;jettySize=auto;html=1;exitX=0.5;exitY=1;exitDx=0;exitDy=0;" parent="1" source="IynW-cATV-pzJD-m26w4-2" target="2hHQCEHZhG925bIhgHVo-1" edge="1">
          <mxGeometry relative="1" as="geometry">
            <Array as="points">
              <mxPoint x="145" y="985" />
              <mxPoint x="310" y="985" />
            </Array>
          </mxGeometry>
        </mxCell>
        <mxCell id="IynW-cATV-pzJD-m26w4-61" value="&lt;font style=&quot;font-size: 22px;&quot;&gt;边缘服务&lt;br&gt;发布&lt;/font&gt;" style="edgeLabel;html=1;align=center;verticalAlign=middle;resizable=0;points=[];labelBackgroundColor=none;" parent="IynW-cATV-pzJD-m26w4-60" vertex="1" connectable="0">
          <mxGeometry x="-0.5957" y="-4" relative="1" as="geometry">
            <mxPoint as="offset" />
          </mxGeometry>
        </mxCell>
        <mxCell id="8BzjSbciPG6FjHRtyO9h-15" style="edgeStyle=orthogonalEdgeStyle;rounded=0;orthogonalLoop=1;jettySize=auto;html=1;exitX=0.5;exitY=1;exitDx=0;exitDy=0;entryX=1;entryY=0.5;entryDx=0;entryDy=0;" parent="1" source="IynW-cATV-pzJD-m26w4-2" target="8BzjSbciPG6FjHRtyO9h-6" edge="1">
          <mxGeometry relative="1" as="geometry" />
        </mxCell>
        <mxCell id="IynW-cATV-pzJD-m26w4-2" value="Edge Core" style="rounded=1;whiteSpace=wrap;html=1;fontSize=22;fillColor=#f8cecc;gradientColor=#ea6b66;strokeColor=#b85450;" parent="1" vertex="1">
          <mxGeometry x="40" y="730" width="210" height="90" as="geometry" />
        </mxCell>
        <mxCell id="IynW-cATV-pzJD-m26w4-16" style="edgeStyle=orthogonalEdgeStyle;rounded=0;orthogonalLoop=1;jettySize=auto;html=1;entryX=1;entryY=0.5;entryDx=0;entryDy=0;" parent="1" source="IynW-cATV-pzJD-m26w4-3" target="IynW-cATV-pzJD-m26w4-1" edge="1">
          <mxGeometry relative="1" as="geometry" />
        </mxCell>
        <mxCell id="IynW-cATV-pzJD-m26w4-23" style="edgeStyle=orthogonalEdgeStyle;rounded=0;orthogonalLoop=1;jettySize=auto;html=1;exitX=0.5;exitY=1;exitDx=0;exitDy=0;entryX=0.5;entryY=0;entryDx=0;entryDy=0;dashed=1;" parent="1" source="IynW-cATV-pzJD-m26w4-71" target="2hHQCEHZhG925bIhgHVo-1" edge="1">
          <mxGeometry relative="1" as="geometry">
            <mxPoint x="370" y="665" as="sourcePoint" />
          </mxGeometry>
        </mxCell>
        <mxCell id="IynW-cATV-pzJD-m26w4-24" value="&lt;font style=&quot;font-size: 22px;&quot;&gt;获取转换任务&lt;/font&gt;" style="edgeLabel;html=1;align=center;verticalAlign=middle;resizable=0;points=[];labelBackgroundColor=none;" parent="IynW-cATV-pzJD-m26w4-23" vertex="1" connectable="0">
          <mxGeometry x="-0.6" y="1" relative="1" as="geometry">
            <mxPoint x="-21" y="37" as="offset" />
          </mxGeometry>
        </mxCell>
        <mxCell id="IynW-cATV-pzJD-m26w4-43" value="proxy" style="rounded=1;whiteSpace=wrap;html=1;fontSize=22;fillColor=#e6d0de;gradientColor=#d5739d;strokeColor=#996185;" parent="1" vertex="1">
          <mxGeometry x="-200" y="550" width="100" height="50" as="geometry" />
        </mxCell>
        <mxCell id="IynW-cATV-pzJD-m26w4-66" style="edgeStyle=orthogonalEdgeStyle;rounded=0;orthogonalLoop=1;jettySize=auto;html=1;exitX=0.5;exitY=0;exitDx=0;exitDy=0;entryX=1;entryY=0.5;entryDx=0;entryDy=0;" parent="1" source="IynW-cATV-pzJD-m26w4-73" target="2hHQCEHZhG925bIhgHVo-2" edge="1">
          <mxGeometry relative="1" as="geometry">
            <mxPoint x="830" y="510" as="sourcePoint" />
          </mxGeometry>
        </mxCell>
        <mxCell id="IynW-cATV-pzJD-m26w4-70" value="proxy" style="rounded=1;whiteSpace=wrap;html=1;fontSize=22;fillColor=#e6d0de;gradientColor=#d5739d;strokeColor=#996185;" parent="1" vertex="1">
          <mxGeometry x="95" y="550" width="100" height="50" as="geometry" />
        </mxCell>
        <mxCell id="IynW-cATV-pzJD-m26w4-71" value="proxy" style="rounded=1;whiteSpace=wrap;html=1;fontSize=22;fillColor=#e6d0de;gradientColor=#d5739d;strokeColor=#996185;" parent="1" vertex="1">
          <mxGeometry x="320" y="550" width="100" height="50" as="geometry" />
        </mxCell>
        <mxCell id="IynW-cATV-pzJD-m26w4-73" value="proxy" style="rounded=1;whiteSpace=wrap;html=1;fontSize=22;fillColor=#e6d0de;gradientColor=#d5739d;strokeColor=#996185;" parent="1" vertex="1">
          <mxGeometry x="510" y="550" width="100" height="50" as="geometry" />
        </mxCell>
        <mxCell id="IynW-cATV-pzJD-m26w4-77" value="" style="group;fontSize=22;" parent="1" vertex="1" connectable="0">
          <mxGeometry x="350" y="160" width="410" height="90" as="geometry" />
        </mxCell>
        <mxCell id="IynW-cATV-pzJD-m26w4-3" value="&lt;font style=&quot;font-size: 22px;&quot;&gt;K8S Api Server&lt;/font&gt;" style="rounded=1;whiteSpace=wrap;html=1;fillColor=#e6d0de;gradientColor=#d5739d;strokeColor=#996185;" parent="IynW-cATV-pzJD-m26w4-77" vertex="1">
          <mxGeometry width="210" height="90" as="geometry" />
        </mxCell>
        <mxCell id="IynW-cATV-pzJD-m26w4-12" value="" style="shape=flexArrow;endArrow=classic;html=1;rounded=0;entryX=1;entryY=0.5;entryDx=0;entryDy=0;fillColor=#1ba1e2;strokeColor=#006EAF;" parent="IynW-cATV-pzJD-m26w4-77" target="IynW-cATV-pzJD-m26w4-3" edge="1">
          <mxGeometry width="50" height="50" relative="1" as="geometry">
            <mxPoint x="350" y="45" as="sourcePoint" />
            <mxPoint x="-90" y="130" as="targetPoint" />
          </mxGeometry>
        </mxCell>
        <mxCell id="IynW-cATV-pzJD-m26w4-13" value="&lt;font style=&quot;font-size: 22px;&quot;&gt;Kubectl&lt;/font&gt;" style="text;html=1;strokeColor=none;fillColor=none;align=center;verticalAlign=middle;whiteSpace=wrap;rounded=0;" parent="IynW-cATV-pzJD-m26w4-77" vertex="1">
          <mxGeometry x="365" y="30" width="60" height="30" as="geometry" />
        </mxCell>
        <mxCell id="IynW-cATV-pzJD-m26w4-92" value="&lt;font style=&quot;font-size: 24px;&quot;&gt;&lt;b&gt;DEVCLOUD&lt;/b&gt;&lt;/font&gt;" style="text;html=1;strokeColor=none;fillColor=none;align=center;verticalAlign=middle;whiteSpace=wrap;rounded=0;" parent="1" vertex="1">
          <mxGeometry x="-20" y="560" width="60" height="30" as="geometry" />
        </mxCell>
        <mxCell id="IynW-cATV-pzJD-m26w4-96" value="&lt;font style=&quot;font-size: 24px;&quot;&gt;&lt;b&gt;本地加速机房&lt;/b&gt;&lt;/font&gt;" style="text;html=1;strokeColor=none;fillColor=none;align=center;verticalAlign=middle;whiteSpace=wrap;rounded=0;" parent="1" vertex="1">
          <mxGeometry x="-560" y="710" width="210" height="20" as="geometry" />
        </mxCell>
        <mxCell id="IynW-cATV-pzJD-m26w4-98" value="&lt;span style=&quot;font-size: 24px;&quot;&gt;&lt;b&gt;云组件&lt;/b&gt;&lt;/span&gt;" style="text;html=1;strokeColor=none;fillColor=none;align=center;verticalAlign=middle;whiteSpace=wrap;rounded=0;" parent="1" vertex="1">
          <mxGeometry x="-665" y="290" width="100" height="30" as="geometry" />
        </mxCell>
        <mxCell id="IynW-cATV-pzJD-m26w4-100" value="&lt;span style=&quot;font-size: 26px;&quot;&gt;&lt;b&gt;腾讯云TKE&lt;/b&gt;&lt;/span&gt;" style="text;html=1;strokeColor=none;fillColor=none;align=center;verticalAlign=middle;whiteSpace=wrap;rounded=0;" parent="1" vertex="1">
          <mxGeometry x="-40" y="100" width="120" height="30" as="geometry" />
        </mxCell>
        <mxCell id="IynW-cATV-pzJD-m26w4-14" value="&lt;font style=&quot;font-size: 22px;&quot;&gt;发布、更新边缘服务&lt;/font&gt;" style="text;html=1;strokeColor=none;fillColor=none;align=center;verticalAlign=middle;whiteSpace=wrap;rounded=0;" parent="1" vertex="1">
          <mxGeometry x="660" y="130" width="115" height="40" as="geometry" />
        </mxCell>
        <mxCell id="8BzjSbciPG6FjHRtyO9h-13" style="edgeStyle=orthogonalEdgeStyle;rounded=0;orthogonalLoop=1;jettySize=auto;html=1;exitX=0.5;exitY=0;exitDx=0;exitDy=0;" parent="1" source="8BzjSbciPG6FjHRtyO9h-6" target="2hHQCEHZhG925bIhgHVo-6" edge="1">
          <mxGeometry relative="1" as="geometry" />
        </mxCell>
        <mxCell id="8BzjSbciPG6FjHRtyO9h-14" value="&lt;font style=&quot;font-size: 22px;&quot;&gt;解压后上传&lt;/font&gt;" style="edgeLabel;html=1;align=center;verticalAlign=middle;resizable=0;points=[];labelBackgroundColor=none;" parent="8BzjSbciPG6FjHRtyO9h-13" vertex="1" connectable="0">
          <mxGeometry y="-3" relative="1" as="geometry">
            <mxPoint as="offset" />
          </mxGeometry>
        </mxCell>
        <mxCell id="8BzjSbciPG6FjHRtyO9h-6" value="Client Proxy" style="rounded=1;whiteSpace=wrap;html=1;fontSize=22;fillColor=#f8cecc;gradientColor=#ea6b66;strokeColor=#b85450;" parent="1" vertex="1">
          <mxGeometry x="-530" y="940" width="180" height="90" as="geometry" />
        </mxCell>
        <mxCell id="8BzjSbciPG6FjHRtyO9h-11" value="&lt;span style=&quot;font-size: 22px;&quot;&gt;用户上传压缩包，通过此服务中转并解压至存储&lt;/span&gt;" style="text;whiteSpace=wrap;html=1;" parent="1" vertex="1">
          <mxGeometry x="-960" y="855" width="190" height="80" as="geometry" />
        </mxCell>
        <mxCell id="8BzjSbciPG6FjHRtyO9h-17" value="&lt;font style=&quot;font-size: 22px;&quot;&gt;Websocket&lt;/font&gt;" style="edgeLabel;html=1;align=center;verticalAlign=middle;resizable=0;points=[];labelBackgroundColor=none;" parent="1" vertex="1" connectable="0">
          <mxGeometry x="140" y="500" as="geometry" />
        </mxCell>
        <mxCell id="8BzjSbciPG6FjHRtyO9h-18" value="&lt;font style=&quot;font-size: 22px;&quot;&gt;获取转换任务&lt;/font&gt;" style="edgeLabel;html=1;align=center;verticalAlign=middle;resizable=0;points=[];labelBackgroundColor=none;" parent="1" vertex="1" connectable="0">
          <mxGeometry x="350" y="500" as="geometry" />
        </mxCell>
        <mxCell id="8BzjSbciPG6FjHRtyO9h-19" value="&lt;font style=&quot;font-size: 22px;&quot;&gt;上报转换结果&lt;/font&gt;" style="edgeLabel;html=1;align=center;verticalAlign=middle;resizable=0;points=[];labelBackgroundColor=none;" parent="1" vertex="1" connectable="0">
          <mxGeometry x="560" y="500" as="geometry" />
        </mxCell>
        <mxCell id="8BzjSbciPG6FjHRtyO9h-20" value="&lt;font style=&quot;font-size: 18px;&quot;&gt;1. 加速机房部署自建的S3存储，用于用户本地上传、下载加速&lt;br&gt;2. 用户如果可访问加速存储，则通过加速存储进行上传、下载行为&lt;br&gt;3. 用户如果无法访问加速存储，则访问远端COS存储&lt;br&gt;4. 加速机房通过s3 sync服务将本地文件同步到远端COS存储&lt;br&gt;5. 本地有边缘计算的需求，主要用于为arthub本地文件提供预览文件的转换生成、解压用户上传的压缩包等需求。这些服务依赖云端Cloud Core和本地的Edge Core服务协同，通过云端的k8s命令进行部署更新&lt;br&gt;6. 本地机房无法直接访问到云环境，目前通过devcloud上部署的proxy转发请求&lt;br&gt;&lt;/font&gt;" style="text;html=1;strokeColor=none;fillColor=none;align=left;verticalAlign=middle;whiteSpace=wrap;rounded=0;" parent="1" vertex="1">
          <mxGeometry x="-930" y="40" width="720" height="200" as="geometry" />
        </mxCell>
        <mxCell id="VNvTYN1yvB8yNp_CZ_hL-17" value="" style="shape=flexArrow;endArrow=classic;html=1;rounded=0;fillColor=#76608a;strokeColor=#432D57;" edge="1" parent="1">
          <mxGeometry width="50" height="50" relative="1" as="geometry">
            <mxPoint x="-516" y="850" as="sourcePoint" />
            <mxPoint x="-660" y="1180" as="targetPoint" />
          </mxGeometry>
        </mxCell>
        <mxCell id="VNvTYN1yvB8yNp_CZ_hL-20" value="" style="group" vertex="1" connectable="0" parent="1">
          <mxGeometry x="-950" y="1180" width="1130" height="590" as="geometry" />
        </mxCell>
        <mxCell id="VNvTYN1yvB8yNp_CZ_hL-18" value="" style="rounded=1;whiteSpace=wrap;html=1;" vertex="1" parent="VNvTYN1yvB8yNp_CZ_hL-20">
          <mxGeometry width="1130" height="590" as="geometry" />
        </mxCell>
        <mxCell id="VNvTYN1yvB8yNp_CZ_hL-11" style="edgeStyle=orthogonalEdgeStyle;shape=flexArrow;rounded=0;orthogonalLoop=1;jettySize=auto;html=1;exitX=0;exitY=0.5;exitDx=0;exitDy=0;startArrow=block;fillColor=#6d8764;strokeColor=#3A5431;" edge="1" parent="VNvTYN1yvB8yNp_CZ_hL-20" source="VNvTYN1yvB8yNp_CZ_hL-2">
          <mxGeometry relative="1" as="geometry">
            <mxPoint x="64.3089430894309" y="266.4516129032258" as="targetPoint" />
          </mxGeometry>
        </mxCell>
        <mxCell id="VNvTYN1yvB8yNp_CZ_hL-2" value="NGINX" style="rounded=1;whiteSpace=wrap;html=1;fontSize=22;fillColor=#f0a30a;strokeColor=#BD7000;fontColor=#000000;" vertex="1" parent="VNvTYN1yvB8yNp_CZ_hL-20">
          <mxGeometry x="220.4878048780488" y="222.67741935483872" width="165.3658536585366" height="85.64516129032259" as="geometry" />
        </mxCell>
        <mxCell id="VNvTYN1yvB8yNp_CZ_hL-3" value="MinIO 1" style="rounded=1;whiteSpace=wrap;html=1;fontSize=22;fillColor=#e3c800;strokeColor=#B09500;fontColor=#000000;" vertex="1" parent="VNvTYN1yvB8yNp_CZ_hL-20">
          <mxGeometry x="624.7154471544716" y="13.322580645161292" width="165.3658536585366" height="85.64516129032259" as="geometry" />
        </mxCell>
        <mxCell id="VNvTYN1yvB8yNp_CZ_hL-7" style="edgeStyle=orthogonalEdgeStyle;rounded=0;orthogonalLoop=1;jettySize=auto;html=1;exitX=1;exitY=0.5;exitDx=0;exitDy=0;entryX=0;entryY=0.5;entryDx=0;entryDy=0;dashed=1;" edge="1" parent="VNvTYN1yvB8yNp_CZ_hL-20" source="VNvTYN1yvB8yNp_CZ_hL-2" target="VNvTYN1yvB8yNp_CZ_hL-3">
          <mxGeometry relative="1" as="geometry">
            <Array as="points">
              <mxPoint x="542.0325203252032" y="265.5" />
              <mxPoint x="542.0325203252032" y="56.145161290322584" />
            </Array>
          </mxGeometry>
        </mxCell>
        <mxCell id="VNvTYN1yvB8yNp_CZ_hL-4" value="MinIO 2" style="rounded=1;whiteSpace=wrap;html=1;fontSize=22;fillColor=#e3c800;strokeColor=#B09500;fontColor=#000000;" vertex="1" parent="VNvTYN1yvB8yNp_CZ_hL-20">
          <mxGeometry x="620.1219512195122" y="165.58064516129033" width="165.3658536585366" height="85.64516129032259" as="geometry" />
        </mxCell>
        <mxCell id="VNvTYN1yvB8yNp_CZ_hL-8" style="edgeStyle=orthogonalEdgeStyle;rounded=0;orthogonalLoop=1;jettySize=auto;html=1;exitX=1;exitY=0.5;exitDx=0;exitDy=0;entryX=0;entryY=0.5;entryDx=0;entryDy=0;dashed=1;" edge="1" parent="VNvTYN1yvB8yNp_CZ_hL-20" source="VNvTYN1yvB8yNp_CZ_hL-2" target="VNvTYN1yvB8yNp_CZ_hL-4">
          <mxGeometry relative="1" as="geometry">
            <Array as="points">
              <mxPoint x="542.0325203252032" y="265.5" />
              <mxPoint x="542.0325203252032" y="208.40322580645162" />
            </Array>
          </mxGeometry>
        </mxCell>
        <mxCell id="VNvTYN1yvB8yNp_CZ_hL-5" value="MinIO 3" style="rounded=1;whiteSpace=wrap;html=1;fontSize=22;fillColor=#e3c800;strokeColor=#B09500;fontColor=#000000;" vertex="1" parent="VNvTYN1yvB8yNp_CZ_hL-20">
          <mxGeometry x="615.5284552845528" y="317.8387096774194" width="165.3658536585366" height="85.64516129032259" as="geometry" />
        </mxCell>
        <mxCell id="VNvTYN1yvB8yNp_CZ_hL-9" style="edgeStyle=orthogonalEdgeStyle;rounded=0;orthogonalLoop=1;jettySize=auto;html=1;exitX=1;exitY=0.5;exitDx=0;exitDy=0;entryX=0;entryY=0.5;entryDx=0;entryDy=0;dashed=1;" edge="1" parent="VNvTYN1yvB8yNp_CZ_hL-20" source="VNvTYN1yvB8yNp_CZ_hL-2" target="VNvTYN1yvB8yNp_CZ_hL-5">
          <mxGeometry relative="1" as="geometry">
            <Array as="points">
              <mxPoint x="542.9512195121952" y="265.5" />
              <mxPoint x="542.9512195121952" y="360.66129032258067" />
            </Array>
          </mxGeometry>
        </mxCell>
        <mxCell id="VNvTYN1yvB8yNp_CZ_hL-6" value="MinIO 4" style="rounded=1;whiteSpace=wrap;html=1;fontSize=22;fillColor=#e3c800;strokeColor=#B09500;fontColor=#000000;" vertex="1" parent="VNvTYN1yvB8yNp_CZ_hL-20">
          <mxGeometry x="620.1219512195122" y="460.58064516129036" width="165.3658536585366" height="85.64516129032259" as="geometry" />
        </mxCell>
        <mxCell id="VNvTYN1yvB8yNp_CZ_hL-10" style="edgeStyle=orthogonalEdgeStyle;rounded=0;orthogonalLoop=1;jettySize=auto;html=1;exitX=1;exitY=0.5;exitDx=0;exitDy=0;entryX=0;entryY=0.5;entryDx=0;entryDy=0;startArrow=classic;startFill=1;dashed=1;" edge="1" parent="VNvTYN1yvB8yNp_CZ_hL-20" source="VNvTYN1yvB8yNp_CZ_hL-2" target="VNvTYN1yvB8yNp_CZ_hL-6">
          <mxGeometry relative="1" as="geometry">
            <Array as="points">
              <mxPoint x="542.0325203252032" y="265.5" />
              <mxPoint x="542.0325203252032" y="503.40322580645164" />
            </Array>
          </mxGeometry>
        </mxCell>
        <mxCell id="VNvTYN1yvB8yNp_CZ_hL-13" value="&lt;font style=&quot;font-size: 18px;&quot;&gt;对外提供服务&lt;/font&gt;" style="text;html=1;strokeColor=none;fillColor=none;align=center;verticalAlign=middle;whiteSpace=wrap;rounded=0;" vertex="1" parent="VNvTYN1yvB8yNp_CZ_hL-20">
          <mxGeometry x="82.6829268292683" y="227.43548387096774" width="119.4308943089431" height="28.548387096774196" as="geometry" />
        </mxCell>
        <mxCell id="VNvTYN1yvB8yNp_CZ_hL-14" value="&lt;font style=&quot;font-size: 18px;&quot;&gt;负载均衡&lt;/font&gt;" style="text;html=1;strokeColor=none;fillColor=none;align=center;verticalAlign=middle;whiteSpace=wrap;rounded=0;" vertex="1" parent="VNvTYN1yvB8yNp_CZ_hL-20">
          <mxGeometry x="421.68292682926824" y="222.67741935483872" width="82.6829268292683" height="24.741935483870968" as="geometry" />
        </mxCell>
        <mxCell id="VNvTYN1yvB8yNp_CZ_hL-15" value="&lt;span style=&quot;font-size: 18px;&quot;&gt;每台机器部署一个MinIO服务&lt;/span&gt;" style="text;html=1;strokeColor=none;fillColor=none;align=center;verticalAlign=middle;whiteSpace=wrap;rounded=0;" vertex="1" parent="VNvTYN1yvB8yNp_CZ_hL-20">
          <mxGeometry x="863.5772357723577" y="241.70967741935485" width="220.4878048780488" height="76.12903225806451" as="geometry" />
        </mxCell>
        <mxCell id="VNvTYN1yvB8yNp_CZ_hL-16" value="" style="shape=curlyBracket;whiteSpace=wrap;html=1;rounded=1;flipH=1;labelPosition=right;verticalLabelPosition=middle;align=left;verticalAlign=middle;" vertex="1" parent="VNvTYN1yvB8yNp_CZ_hL-20">
          <mxGeometry x="826.8292682926829" y="38.064516129032256" width="18.3739837398374" height="485.32258064516134" as="geometry" />
        </mxCell>
        <mxCell id="VNvTYN1yvB8yNp_CZ_hL-19" value="&lt;font style=&quot;font-size: 22px;&quot;&gt;&lt;b&gt;自建对象存储架构&lt;/b&gt;&lt;/font&gt;" style="text;html=1;strokeColor=none;fillColor=none;align=center;verticalAlign=middle;whiteSpace=wrap;rounded=0;" vertex="1" parent="VNvTYN1yvB8yNp_CZ_hL-20">
          <mxGeometry x="82.6829268292683" y="85.64516129032259" width="192.9268292682927" height="28.548387096774196" as="geometry" />
        </mxCell>
      </root>
    </mxGraphModel>
  </diagram>
</mxfile>
